<?xml version="1.0" standalone="no"?>
<!DOCTYPE svg PUBLIC "-//W3C//DTD SVG 20010904//EN"
 "http://www.w3.org/TR/2001/REC-SVG-20010904/DTD/svg10.dtd">
<svg version="1.0" xmlns="http://www.w3.org/2000/svg"
 width="2070.000000pt" height="2068.000000pt" viewBox="0 0 2070.000000 2068.000000"
 preserveAspectRatio="xMidYMid meet">

<g transform="translate(0.000000,2068.000000) scale(0.100000,-0.100000)"
fill="#000000" stroke="none">
<path d="M9960 20674 c-1307 -61 -2450 -310 -3590 -782 -2470 -1023 -4494
-3029 -5544 -5495 -815 -1913 -1032 -4046 -621 -6092 268 -1333 775 -2554
1536 -3695 960 -1441 2258 -2608 3814 -3433 1155 -611 2499 -1010 3815 -1131
370 -34 517 -40 970 -40 543 0 845 18 1325 79 2002 257 3872 1093 5417 2422
2026 1743 3303 4204 3552 6848 36 376 41 500 41 985 0 485 -5 607 -41 985
-289 3079 -1970 5883 -4566 7616 -792 528 -1648 944 -2538 1234 -821 266
-1615 418 -2550 485 -144 11 -877 21 -1020 14z m1020 -214 c826 -57 1595 -199
2360 -435 2246 -696 4208 -2180 5503 -4167 879 -1348 1427 -2900 1586 -4493
39 -392 46 -533 46 -1025 0 -492 -6 -628 -46 -1025 -299 -2999 -1947 -5729
-4474 -7414 -2021 -1347 -4434 -1920 -6850 -1625 -1179 144 -2342 502 -3390
1043 -2975 1539 -5008 4429 -5429 7721 -60 466 -80 788 -80 1300 0 734 56
1307 195 2005 314 1580 1001 3053 2015 4320 599 750 1313 1420 2114 1987 986
698 2155 1231 3355 1529 662 165 1295 254 2080 293 134 7 861 -3 1015 -14z"/>
<path d="M8490 15300 c0 -1465 0 -1450 56 -1667 90 -346 262 -636 526 -888
138 -132 262 -219 438 -309 441 -224 939 -264 1409 -114 641 205 1126 745
1260 1405 39 188 42 335 39 1653 l-3 1265 -1862 3 -1863 2 0 -1350z m2639
-283 c419 -730 764 -1334 768 -1342 4 -13 -20 -15 -168 -15 l-174 0 -687 1193
c-379 656 -688 1199 -688 1206 0 21 172 303 180 294 4 -4 350 -606 769 -1336z
m-499 -289 c332 -579 605 -1056 607 -1060 2 -5 -72 -8 -164 -8 l-168 0 -520
896 c-286 493 -524 906 -528 917 -7 18 8 50 75 164 45 78 86 142 90 143 3 0
277 -474 608 -1052z m-482 -293 l440 -770 -171 -3 c-94 -1 -174 1 -178 5 -15
15 -722 1238 -722 1248 1 21 176 306 184 298 4 -4 206 -354 447 -778z m-499
-280 l280 -490 -176 -3 c-97 -1 -180 1 -184 5 -4 5 -93 158 -199 341 l-191
332 93 155 c51 85 93 153 94 152 2 -1 129 -223 283 -492z m-500 -290 c62 -108
111 -198 109 -201 -3 -2 -109 -3 -236 -2 l-232 3 116 198 c64 108 119 197 123
197 3 0 58 -88 120 -195z"/>
<path d="M4140 9836 l0 -1516 598 0 c636 0 707 4 857 50 351 109 531 369 605
872 47 317 47 869 0 1186 -79 541 -281 800 -695 893 -97 22 -121 23 -732 26
l-633 4 0 -1515z m1099 994 c191 -48 286 -181 332 -465 17 -104 24 -768 10
-928 -32 -355 -106 -499 -296 -568 -53 -20 -85 -23 -287 -27 l-228 -4 0 1007
0 1008 213 -6 c116 -3 232 -11 256 -17z"/>
<path d="M6570 9835 l0 -1515 820 0 820 0 0 265 0 265 -500 0 -500 0 0 405 0
405 460 0 460 0 0 265 0 265 -460 0 -460 0 0 325 0 325 500 0 500 0 0 255 0
255 -820 0 -820 0 0 -1515z"/>
<path d="M8850 9877 c-228 -809 -420 -1491 -427 -1514 l-12 -43 318 0 317 0
80 335 79 335 442 0 441 0 82 -335 82 -335 332 0 333 0 -421 1515 -421 1515
-405 0 -405 0 -415 -1473z m960 268 c82 -340 150 -620 150 -622 0 -2 -140 -3
-311 -3 -291 0 -311 1 -307 18 36 150 313 1230 315 1228 1 -1 70 -281 153
-621z"/>
<path d="M11120 9835 l0 -1515 315 0 315 0 2 732 3 731 355 -731 354 -732 367
0 367 0 -28 53 c-396 736 -840 1573 -840 1582 0 6 195 321 433 701 l433 689
-320 3 c-177 1 -326 0 -332 -2 -6 -2 -186 -297 -400 -655 l-389 -652 -3 656
-2 655 -315 0 -315 0 0 -1515z"/>
<path d="M13480 9835 l0 -1515 310 0 310 0 0 1515 0 1515 -310 0 -310 0 0
-1515z"/>
<path d="M14510 9835 l0 -1515 270 0 270 0 0 987 c0 591 4 983 9 978 6 -7 732
-1782 798 -1952 4 -10 84 -13 354 -13 l349 0 0 1515 0 1515 -280 0 -280 0 -2
-924 -3 -924 -361 921 -362 922 -381 3 -381 2 0 -1515z"/>
<path d="M4224 7559 c-28 -5 -63 -13 -78 -19 l-27 -10 3 -582 c4 -643 4 -636
70 -760 53 -99 140 -161 275 -195 94 -24 370 -23 466 0 134 33 222 96 275 194
66 124 65 120 69 742 2 311 2 575 -2 588 -3 12 -17 30 -30 39 -23 15 -35 15
-103 4 -42 -6 -87 -18 -99 -26 l-23 -14 0 -538 c0 -586 -3 -619 -57 -690 -14
-19 -51 -46 -82 -61 -51 -24 -67 -26 -181 -26 -80 0 -139 5 -163 14 -53 18
-106 68 -131 121 -20 44 -21 64 -26 618 l-5 574 -24 19 c-25 20 -46 22 -127 8z"/>
<path d="M5805 7563 c-16 -2 -47 -8 -67 -13 l-38 -11 0 -768 0 -769 32 -11
c18 -7 64 -14 103 -17 120 -10 109 -64 115 566 l5 542 344 -531 c189 -291 351
-537 360 -545 19 -16 106 -36 159 -36 21 0 48 7 60 16 l22 15 0 769 0 770 -25
16 c-26 17 -105 14 -187 -7 l-38 -10 -2 -543 -3 -543 -350 539 c-192 297 -361
549 -374 559 -23 18 -47 21 -116 12z"/>
<path d="M7425 7563 c-16 -2 -47 -8 -67 -13 l-38 -11 0 -768 0 -769 30 -10
c16 -6 61 -14 99 -18 57 -5 75 -3 96 10 l25 16 0 770 0 769 -22 15 c-21 15
-54 18 -123 9z"/>
<path d="M7910 7558 c-17 -9 -26 -23 -28 -43 -4 -44 489 -1505 514 -1522 29
-19 175 -28 196 -11 11 8 117 309 273 772 284 845 271 792 185 810 -56 12
-167 -6 -191 -31 -19 -20 -348 -1138 -350 -1188 -1 -27 -2 -27 -11 10 -6 22
-84 288 -175 590 -90 303 -166 558 -169 568 -8 27 -59 45 -145 52 -52 4 -81 2
-99 -7z"/>
<path d="M12564 7560 c-185 -26 -294 -94 -353 -219 -23 -50 -26 -68 -25 -161
0 -125 19 -184 89 -272 58 -74 135 -135 260 -205 277 -156 350 -235 329 -357
-10 -60 -72 -119 -149 -142 -86 -26 -255 -23 -403 8 -85 18 -117 21 -129 13
-15 -11 -43 -110 -43 -157 0 -37 35 -54 152 -73 344 -56 622 -10 738 122 55
62 82 134 88 232 8 153 -37 267 -148 376 -74 73 -82 78 -262 184 -182 107
-251 166 -267 229 -23 83 19 154 109 188 69 25 245 30 368 9 55 -9 110 -14
120 -11 26 9 43 50 49 118 l6 58 -44 19 c-80 35 -360 59 -485 41z"/>
<path d="M13575 7563 c-16 -2 -47 -8 -67 -13 l-38 -11 0 -768 0 -769 32 -11
c17 -6 62 -14 99 -17 54 -6 73 -3 94 10 l25 16 0 770 0 769 -22 15 c-21 15
-54 18 -123 9z"/>
<path d="M15373 7555 c-13 -9 -23 -25 -23 -35 0 -11 107 -227 238 -482 l237
-463 5 -285 5 -285 25 -12 c14 -6 60 -15 102 -19 73 -6 77 -6 102 19 l26 26 0
277 0 276 236 464 c169 334 234 472 232 491 -4 37 -45 48 -143 38 -57 -5 -82
-12 -99 -28 -13 -12 -97 -173 -186 -357 -90 -184 -165 -338 -169 -342 -3 -4
-83 151 -178 345 -133 272 -178 355 -197 365 -14 7 -63 15 -108 18 -67 5 -87
3 -105 -11z"/>
<path d="M9432 7528 c-9 -9 -12 -191 -12 -759 l0 -747 31 -11 c22 -7 179 -11
476 -11 l443 0 10 26 c6 14 13 55 16 92 10 114 35 107 -375 110 l-351 3 0 219
0 220 310 0 309 0 10 38 c18 67 16 150 -4 172 -17 19 -31 20 -322 20 l-303 0
2 208 3 207 348 3 348 2 9 24 c5 13 12 51 16 85 5 48 3 66 -10 86 l-16 25
-463 0 c-347 0 -466 -3 -475 -12z"/>
<path d="M10784 7526 c-18 -14 -19 -35 -22 -748 -1 -403 0 -743 3 -755 6 -26
47 -41 136 -49 54 -6 73 -3 94 10 l25 16 0 285 0 285 133 0 132 0 161 -278
c183 -314 175 -307 309 -318 70 -6 83 -4 104 13 18 15 22 26 18 44 -4 13 -76
143 -161 289 -128 220 -151 266 -137 272 9 4 41 17 72 28 97 35 165 125 189
250 15 82 12 314 -6 390 -36 154 -124 232 -300 265 -109 21 -721 22 -750 1z
m618 -216 c150 -15 177 -46 185 -204 8 -145 -2 -209 -37 -250 -44 -49 -82 -56
-319 -56 l-211 0 0 260 0 260 148 0 c81 0 186 -4 234 -10z"/>
<path d="M14029 7513 c-6 -16 -13 -58 -16 -94 -5 -59 -3 -69 16 -88 20 -20 30
-21 226 -21 l205 0 0 -649 c0 -558 2 -650 15 -661 19 -15 155 -35 188 -26 60
15 57 -23 57 687 l0 649 204 0 c167 0 206 3 216 15 6 8 17 48 22 89 10 65 9
78 -6 101 l-16 25 -550 0 -550 0 -11 -27z"/>
</g>
</svg>
